<svg width="21" height="24" viewBox="0 0 21 24" fill="none" xmlns="http://www.w3.org/2000/svg">
<path d="M14.0625 23.375C12.7769 23.375 11.5202 22.9938 10.4513 22.2796C9.38238 21.5653 8.54926 20.5502 8.05729 19.3624C7.56532 18.1747 7.43659 16.8678 7.6874 15.6069C7.9382 14.346 8.55727 13.1878 9.46631 12.2788C10.3753 11.3698 11.5335 10.7507 12.7944 10.4999C14.0553 10.2491 15.3622 10.3778 16.5499 10.8698C17.7377 11.3618 18.7528 12.1949 19.4671 13.2638C20.1813 14.3327 20.5625 15.5894 20.5625 16.875C20.5625 18.5989 19.8777 20.2522 18.6587 21.4712C17.4397 22.6902 15.7864 23.375 14.0625 23.375ZM14.0625 12C13.0983 12 12.1558 12.2859 11.3541 12.8216C10.5524 13.3573 9.92757 14.1186 9.55859 15.0094C9.18961 15.9002 9.09307 16.8804 9.28117 17.8261C9.46928 18.7717 9.93358 19.6404 10.6154 20.3221C11.2971 21.0039 12.1658 21.4682 13.1114 21.6563C14.0571 21.8444 15.0373 21.7479 15.9281 21.3789C16.8189 21.0099 17.5802 20.3851 18.1159 19.5834C18.6516 18.7817 18.9375 17.8392 18.9375 16.875C18.9375 15.5821 18.4239 14.3421 17.5096 13.4279C16.5954 12.5136 15.3554 12 14.0625 12Z" fill="white"/>
<path d="M15.3544 19.3125L13.25 17.2081V13.625H14.875V16.5419L16.5 18.1669L15.3544 19.3125Z" fill="white"/>
<path d="M19.75 3.875C19.75 3.44402 19.5788 3.0307 19.274 2.72595C18.9693 2.4212 18.556 2.25 18.125 2.25H14.875V0.625H13.25V2.25H6.75V0.625H5.125V2.25H1.875C1.44402 2.25 1.0307 2.4212 0.725951 2.72595C0.421205 3.0307 0.25 3.44402 0.25 3.875V20.125C0.25 20.556 0.421205 20.9693 0.725951 21.274C1.0307 21.5788 1.44402 21.75 1.875 21.75H5.125V20.125H1.875V3.875H5.125V5.5H6.75V3.875H13.25V5.5H14.875V3.875H18.125V8.75H19.75V3.875Z" fill="white"/>
</svg>
